<svg width="24" height="24" viewBox="0 0 24 24" fill="none" xmlns="http://www.w3.org/2000/svg">
<path d="M5.07 4.5L5.4075 5.1675L5.82 6H9V9.75H3V4.5H5.07ZM5.535 3H2.25C2.05109 3 1.86032 3.07902 1.71967 3.21967C1.57902 3.36033 1.5 3.55109 1.5 3.75V10.5C1.5 10.6989 1.57902 10.8897 1.71967 11.0303C1.86032 11.171 2.05109 11.25 2.25 11.25H9.75C9.94891 11.25 10.1397 11.171 10.2803 11.0303C10.421 10.8897 10.5 10.6989 10.5 10.5V5.25C10.5 5.05109 10.421 4.86033 10.2803 4.71967C10.1397 4.57902 9.94891 4.5 9.75 4.5H6.75L6.21 3.4125C6.1471 3.28768 6.05058 3.18291 5.93131 3.11002C5.81204 3.03714 5.67477 2.99903 5.535 3ZM17.07 4.5L17.4075 5.1675L17.82 6H21V9.75H15V4.5H17.07ZM17.535 3H14.25C14.0511 3 13.8603 3.07902 13.7197 3.21967C13.579 3.36033 13.5 3.55109 13.5 3.75V10.5C13.5 10.6989 13.579 10.8897 13.7197 11.0303C13.8603 11.171 14.0511 11.25 14.25 11.25H21.75C21.9489 11.25 22.1397 11.171 22.2803 11.0303C22.421 10.8897 22.5 10.6989 22.5 10.5V5.25C22.5 5.05109 22.421 4.86033 22.2803 4.71967C22.1397 4.57902 21.9489 4.5 21.75 4.5H18.75L18.21 3.4125C18.1471 3.28768 18.0506 3.18291 17.9313 3.11002C17.812 3.03714 17.6748 2.99903 17.535 3ZM5.07 14.25L5.4075 14.9175L5.82 15.75H9V19.5H3V14.25H5.07ZM5.535 12.75H2.25C2.05109 12.75 1.86032 12.829 1.71967 12.9697C1.57902 13.1103 1.5 13.3011 1.5 13.5V20.25C1.5 20.4489 1.57902 20.6397 1.71967 20.7803C1.86032 20.921 2.05109 21 2.25 21H9.75C9.94891 21 10.1397 20.921 10.2803 20.7803C10.421 20.6397 10.5 20.4489 10.5 20.25V15C10.5 14.8011 10.421 14.6103 10.2803 14.4697C10.1397 14.329 9.94891 14.25 9.75 14.25H6.75L6.21 13.1625C6.1471 13.0377 6.05058 12.9329 5.93131 12.86C5.81204 12.7871 5.67477 12.749 5.535 12.75ZM17.07 14.25L17.4075 14.9175L17.82 15.75H21V19.5H15V14.25H17.07ZM17.535 12.75H14.25C14.0511 12.75 13.8603 12.829 13.7197 12.9697C13.579 13.1103 13.5 13.3011 13.5 13.5V20.25C13.5 20.4489 13.579 20.6397 13.7197 20.7803C13.8603 20.921 14.0511 21 14.25 21H21.75C21.9489 21 22.1397 20.921 22.2803 20.7803C22.421 20.6397 22.5 20.4489 22.5 20.25V15C22.5 14.8011 22.421 14.6103 22.2803 14.4697C22.1397 14.329 21.9489 14.25 21.75 14.25H18.75L18.21 13.1625C18.1471 13.0377 18.0506 12.9329 17.9313 12.86C17.812 12.7871 17.6748 12.749 17.535 12.75Z" fill="url(#paint0_linear_45_791)"/>
<defs>
<linearGradient id="paint0_linear_45_791" x1="11.7065" y1="3.09545" x2="16.8946" y2="18.26" gradientUnits="userSpaceOnUse">
<stop stop-color="#FDC3D7"/>
<stop offset="1" stop-color="#FA64A1"/>
</linearGradient>
</defs>
</svg>
