<svg width="21" height="24" viewBox="0 0 21 24" fill="none" xmlns="http://www.w3.org/2000/svg">
<path d="M14.0859 14.0977C15.1484 14.4648 16.1055 14.9766 16.957 15.6328C17.8086 16.2891 18.5352 17.0547 19.1367 17.9297C19.7383 18.8047 20.1992 19.7539 20.5195 20.7773C20.8398 21.8008 21 22.875 21 24H19.5C19.5 22.7188 19.2734 21.5312 18.8203 20.4375C18.3672 19.3438 17.7344 18.3906 16.9219 17.5781C16.1094 16.7656 15.1602 16.1367 14.0742 15.6914C12.9883 15.2461 11.7969 15.0156 10.5 15C9.66406 15 8.85938 15.1055 8.08594 15.3164C7.3125 15.5273 6.59375 15.8242 5.92969 16.207C5.26562 16.5898 4.66016 17.0547 4.11328 17.6016C3.56641 18.1484 3.10156 18.7539 2.71875 19.418C2.33594 20.082 2.03516 20.8047 1.81641 21.5859C1.59766 22.3672 1.49219 23.1719 1.5 24H0C0 22.875 0.164062 21.8008 0.492188 20.7773C0.820312 19.7539 1.28516 18.8086 1.88672 17.9414C2.48828 17.0742 3.21484 16.3164 4.06641 15.668C4.91797 15.0195 5.875 14.5 6.9375 14.1094C6.32812 13.7812 5.78125 13.3828 5.29688 12.9141C4.8125 12.4453 4.40234 11.9258 4.06641 11.3555C3.73047 10.7852 3.46875 10.1719 3.28125 9.51562C3.09375 8.85938 3 8.1875 3 7.5C3 6.46094 3.19531 5.48828 3.58594 4.58203C3.97656 3.67578 4.51172 2.87891 5.19141 2.19141C5.87109 1.50391 6.66406 0.96875 7.57031 0.585938C8.47656 0.203125 9.45312 0.0078125 10.5 0C11.5391 0 12.5117 0.195312 13.418 0.585938C14.3242 0.976562 15.1211 1.51172 15.8086 2.19141C16.4961 2.87109 17.0312 3.66406 17.4141 4.57031C17.7969 5.47656 17.9922 6.45312 18 7.5C18 8.1875 17.9102 8.85547 17.7305 9.50391C17.5508 10.1523 17.2891 10.7617 16.9453 11.332C16.6016 11.9023 16.1914 12.4219 15.7148 12.8906C15.2383 13.3594 14.6953 13.7617 14.0859 14.0977ZM4.5 7.5C4.5 8.32812 4.65625 9.10547 4.96875 9.83203C5.28125 10.5586 5.71094 11.1914 6.25781 11.7305C6.80469 12.2695 7.44141 12.6992 8.16797 13.0195C8.89453 13.3398 9.67188 13.5 10.5 13.5C11.3281 13.5 12.1055 13.3438 12.832 13.0312C13.5586 12.7188 14.1914 12.2891 14.7305 11.7422C15.2695 11.1953 15.6992 10.5586 16.0195 9.83203C16.3398 9.10547 16.5 8.32812 16.5 7.5C16.5 6.67188 16.3438 5.89453 16.0312 5.16797C15.7188 4.44141 15.2891 3.80859 14.7422 3.26953C14.1953 2.73047 13.5586 2.30078 12.832 1.98047C12.1055 1.66016 11.3281 1.5 10.5 1.5C9.67188 1.5 8.89453 1.65625 8.16797 1.96875C7.44141 2.28125 6.80859 2.71094 6.26953 3.25781C5.73047 3.80469 5.30078 4.44141 4.98047 5.16797C4.66016 5.89453 4.5 6.67188 4.5 7.5Z" fill="url(#paint0_linear_45_812)"/>
<defs>
<linearGradient id="paint0_linear_45_812" x1="10.2065" y1="0.127284" x2="18.7348" y2="18.8231" gradientUnits="userSpaceOnUse">
<stop stop-color="#FDC3D7"/>
<stop offset="1" stop-color="#FA64A1"/>
</linearGradient>
</defs>
</svg>
