<svg width="83" height="66" viewBox="0 0 83 66" fill="none" xmlns="http://www.w3.org/2000/svg">
<path d="M81.5641 18.2326C81.7079 18.4176 81.8621 18.7773 82.0265 19.3116C82.2115 19.846 82.2937 20.3187 82.2731 20.7297C81.3894 21.0997 80.4646 21.4696 79.4986 21.8395C78.5327 22.1889 77.6284 22.5177 76.7857 22.826C75.9636 23.1343 75.2854 23.3809 74.7511 23.5659C74.114 23.4015 73.446 23.1446 72.7473 22.7952C72.0485 22.4458 71.4114 22.0348 70.8359 21.5621C70.2605 21.0688 69.8494 20.5756 69.6028 20.0823L70.0344 10.6489C70.3221 10.1351 70.7229 9.62133 71.2367 9.10753C71.771 8.57318 72.2951 8.0902 72.8089 7.65861C74.0009 7.39143 75.1621 7.22702 76.2925 7.16536C77.4434 7.1037 78.5429 7.15508 79.5911 7.3195C79.7761 7.42226 80.0227 7.64833 80.331 7.99772C80.6598 8.32655 80.9784 8.66566 81.2866 9.01505C81.5949 9.36443 81.8004 9.62133 81.9032 9.78575L81.7799 14.3791C81.2455 14.7696 80.5262 15.1807 79.6219 15.6123C78.7176 16.0438 77.7209 16.4652 76.6316 16.8762C75.5423 17.2667 74.4531 17.6161 73.3638 17.9244C73.3844 18.3149 73.4152 18.6951 73.4563 19.065C73.4974 19.4349 73.5488 19.7946 73.6104 20.144L81.5641 18.2326ZM78.4813 10.4948C77.7414 10.392 77.0221 10.3612 76.3233 10.4023C75.6245 10.4434 74.8949 10.5667 74.1345 10.7722C73.929 11.4094 73.7646 12.0979 73.6413 12.8377C73.518 13.5776 73.4255 14.3278 73.3638 15.0882C74.2475 14.8004 75.1724 14.4305 76.1383 13.9784C77.1248 13.5057 78.0188 13.0124 78.8204 12.4986L78.4813 10.4948Z" fill="url(#paint0_linear_11_102)"/>
<path d="M67.7938 19.0958C67.9788 19.3424 68.1638 19.6918 68.3487 20.1439C68.5337 20.5961 68.6468 21.0585 68.6879 21.5312L64.5261 23.5659C63.9917 23.2987 63.4265 22.9493 62.8305 22.5177C62.2345 22.0861 61.7618 21.6134 61.4124 21.0996C61.7824 19.8048 62.029 18.4998 62.1523 17.1844C62.2756 15.8691 62.3064 14.6463 62.2448 13.5159C62.2037 12.365 62.0906 11.4196 61.9057 10.6797C61.2069 10.9674 60.467 11.5532 59.6861 12.4369C58.9051 13.3207 58.1858 14.3688 57.5281 15.5814L57.3431 23.0726C56.891 23.1959 56.3669 23.2576 55.7709 23.2576C55.1749 23.2576 54.6405 23.1959 54.1678 23.0726C53.5307 22.3944 53.0066 21.6237 52.5956 20.7605C52.9039 19.2191 53.3663 17.7702 53.9829 16.4137C54.0651 15.2628 54.0753 14.1838 54.0137 13.1768C53.952 12.1697 53.839 11.3374 53.6746 10.6797C52.8525 10.988 52.0304 11.6148 51.2083 12.5602C50.3862 13.4851 49.6464 14.5641 48.9887 15.7972L48.8037 23.0726C48.3516 23.1959 47.8275 23.2576 47.2315 23.2576C46.6355 23.2576 46.1011 23.1959 45.6284 23.0726C44.9913 22.3944 44.4673 21.6237 44.0562 20.7605C44.2412 19.7946 44.4878 18.8697 44.7961 17.986C45.1249 17.1022 45.4949 16.2493 45.9059 15.4272V15.1806L45.536 10.9263L42.8539 11.6046C42.7101 11.3579 42.5354 11.0188 42.3298 10.5872C42.1243 10.1351 42.001 9.67267 41.9599 9.19997L46.1217 7.16531C46.3272 7.18587 46.6149 7.2989 46.9849 7.50442C47.3754 7.70994 47.7556 7.93602 48.1255 8.18264C48.516 8.40871 48.8037 8.60396 48.9887 8.76837L48.8654 10.9263C49.893 9.75487 50.8898 8.84031 51.8557 8.18264C52.8422 7.50442 53.654 7.16531 54.2911 7.16531C54.6405 7.32973 55.0105 7.64829 55.401 8.12099C55.812 8.59368 56.1819 9.11776 56.5108 9.69322C56.8396 10.2481 57.0554 10.7722 57.1582 11.2655C58.2474 9.99122 59.3264 8.99445 60.3951 8.27513C61.4844 7.53525 62.3989 7.16531 63.1388 7.16531C63.4471 7.32973 63.7862 7.61746 64.1561 8.0285C64.5261 8.43954 64.8652 8.90196 65.1735 9.41577C65.4817 9.90901 65.6975 10.4023 65.8208 10.8955L65.2968 19.7432L67.7938 19.0958Z" fill="url(#paint1_linear_11_102)"/>
<path d="M47.3562 10.4023L41.3447 12.4061L41.0981 19.3424C40.9337 19.6712 40.6768 20.072 40.3274 20.5447C39.9986 20.9969 39.6286 21.4387 39.2176 21.8703C38.8271 22.3019 38.4366 22.6616 38.0461 22.9493C37.4295 23.1343 36.8438 23.2781 36.2889 23.3809C35.734 23.5042 35.1072 23.5659 34.4084 23.5659C33.7302 23.5659 32.8773 23.5248 31.8497 23.4425C31.4386 23.2781 30.9556 22.9904 30.4007 22.5794C29.8458 22.1478 29.3423 21.6751 28.8902 21.1613C28.438 20.6269 28.1503 20.1234 28.027 19.6507L28.4277 11.2655C28.5922 10.8544 28.808 10.4023 29.0751 9.90901C29.3629 9.39521 29.6711 8.90196 30 8.42927C30.3494 7.95657 30.6885 7.59691 31.0173 7.35028C31.5517 7.49415 32.0141 7.72022 32.4046 8.0285C32.7951 8.31623 33.0931 8.60396 33.2986 8.89169C32.7437 9.54935 32.3326 10.392 32.0655 11.4196C31.7983 12.4472 31.6339 13.5159 31.5722 14.6257C31.5106 15.7355 31.5311 16.7734 31.6339 17.7394C31.7572 18.6847 31.9216 19.4246 32.1271 19.959C32.9903 20.1234 33.8535 20.185 34.7167 20.1439C35.5799 20.0823 36.3917 19.9487 37.1521 19.7432C37.5631 18.5512 37.7892 17.3386 37.8303 16.1055C37.892 14.8723 37.8406 13.7831 37.6762 12.8377C36.9774 12.8993 36.3711 12.9302 35.8573 12.9302C35.3641 12.9302 34.9016 12.8891 34.47 12.8069L33.5144 10.7414C33.8843 10.0632 34.2645 9.43632 34.655 8.86086C35.0661 8.26485 35.5079 7.69967 35.9806 7.16531C36.7822 7.24752 37.5426 7.53525 38.2619 8.0285C38.9812 8.52175 39.5978 9.10748 40.1116 9.7857L46.4313 7.35028C46.6574 7.63801 46.8629 8.09016 47.0479 8.70672C47.2329 9.30273 47.3356 9.86791 47.3562 10.4023Z" fill="url(#paint2_linear_11_102)"/>
<path d="M25.2917 1.60306L25.0143 12.2388V25.8736L23.2571 22.6895C22.3014 25.8736 22.1781 22.0626 21.6232 21.6105C21.0683 21.1378 20.6162 20.5726 20.2668 19.9149L21.5616 12.917H13.3613L12.7755 25.8736L11.6041 22.6895C11.0697 22.4223 10.6484 29.7271 9.97019 21.6105C9.41528 21.1378 9.75437 36.3331 8.61375 19.9149L0 9.46425L9.75439 0.616562L10.6484 0C10.8745 0.0411036 11.1828 0.15414 11.5732 0.339109C11.9843 0.524077 12.3851 0.729598 12.7755 0.955671C13.166 1.18174 13.4538 1.39754 13.6387 1.60306L13.4229 9.46423H21.6849L21.4074 0.616562L22.3014 0C22.5275 0.0411036 22.8358 0.15414 23.2263 0.339109C23.6373 0.524077 24.9013 1.37699 25.2917 1.60306C25.6822 1.82913 25.1068 1.39754 25.2917 1.60306Z" fill="url(#paint3_linear_11_102)"/>
<path d="M71.5725 52.5179C71.8808 53.155 72.3638 53.7202 73.0214 54.2134C73.6791 54.6861 74.419 55.1897 75.2411 55.724C76.0631 56.2378 76.875 56.8544 77.6765 57.5737C78.4986 58.2725 79.2282 59.1665 79.8653 60.2557C79.7009 61.2011 79.4029 62.0952 78.9713 62.9378C78.5397 63.7804 78.0156 64.4381 77.399 64.9108C76.392 65.178 75.2822 65.3218 74.0696 65.3424C72.857 65.3835 71.5622 65.2704 70.1853 65.0033C69.9181 64.7977 69.6098 64.5408 69.2604 64.2326C68.911 63.9037 68.6027 63.5646 68.3356 63.2152L68.4897 59.1768C68.8391 59.0534 69.2501 58.9815 69.7228 58.961C70.1955 58.9199 70.6271 58.9507 71.0176 59.0534L71.5109 62.4137C72.4152 62.5576 73.34 62.5678 74.2854 62.4445C75.2513 62.3007 76.0529 62.0746 76.69 61.7663C76.1762 61.0881 75.5288 60.4818 74.7478 59.9475C73.9874 59.4131 73.1859 58.889 72.3432 58.3752C71.5211 57.8409 70.7504 57.2346 70.0311 56.5564C69.3323 55.8782 68.7877 55.0458 68.3972 54.0593C68.4589 53.6072 68.5925 53.0933 68.798 52.5179C69.0035 51.9219 69.2501 51.3567 69.5379 50.8223C69.8461 50.288 70.175 49.8667 70.5244 49.5584C71.8602 49.1885 73.1345 49.0035 74.347 49.0035C75.5596 48.9829 76.8544 49.1165 78.2314 49.4043C78.4986 49.5687 78.776 49.8564 79.0637 50.2674C79.372 50.6785 79.6084 51.0073 79.7728 51.2539L79.3412 55.0766C78.9918 55.1999 78.591 55.2616 78.1389 55.2616C77.6868 55.2616 77.2552 55.2205 76.8441 55.1383L76.5667 51.9938C75.7446 51.9322 74.8917 51.9424 74.0079 52.0246C73.1448 52.1069 72.3329 52.2713 71.5725 52.5179Z" fill="#FA64A1"/>
<path d="M65.7193 60.0707C65.8632 60.2557 66.0173 60.6154 66.1817 61.1497C66.3667 61.6841 66.4489 62.1568 66.4283 62.5678C65.5446 62.9378 64.6198 63.3077 63.6538 63.6776C62.6879 64.027 61.7836 64.3559 60.9409 64.6641C60.1189 64.9724 59.4406 65.219 58.9063 65.404C58.2692 65.2396 57.6012 64.9827 56.9025 64.6333C56.2037 64.2839 55.5666 63.8729 54.9911 63.4002C54.4157 62.9069 54.0046 62.4137 53.758 61.9204L54.1896 52.487C54.4773 51.9732 54.8781 51.4594 55.3919 50.9456C55.9262 50.4113 56.4503 49.9283 56.9641 49.4967C58.1561 49.2295 59.3173 49.0651 60.4477 49.0035C61.5986 48.9418 62.6981 48.9932 63.7463 49.1576C63.9313 49.2604 64.1779 49.4864 64.4862 49.8358C64.815 50.1647 65.1336 50.5038 65.4418 50.8531C65.7501 51.2025 65.9556 51.4594 66.0584 51.6239L65.9351 56.2172C65.4007 56.6077 64.6814 57.0188 63.7771 57.4504C62.8728 57.882 61.8761 58.3033 60.7868 58.7143C59.6975 59.1048 58.6083 59.4542 57.519 59.7625C57.5396 60.153 57.5704 60.5332 57.6115 60.9031C57.6526 61.273 57.704 61.6327 57.7656 61.9821L65.7193 60.0707ZM62.6365 52.3329C61.8966 52.2301 61.1773 52.1993 60.4785 52.2404C59.7797 52.2815 59.0502 52.4048 58.2897 52.6104C58.0842 53.2475 57.9198 53.936 57.7965 54.6758C57.6732 55.4157 57.5807 56.1659 57.519 56.9263C58.4028 56.6386 59.3276 56.2686 60.2936 55.8165C61.2801 55.3438 62.1741 54.8505 62.9756 54.3367L62.6365 52.3329Z" fill="#FA64A1"/>
<path d="M51.9516 60.8415C52.116 61.0881 52.2907 61.4683 52.4757 61.9821C52.6812 62.4754 52.8045 62.9583 52.8456 63.431L49.3004 65.404C48.3755 65.178 47.4815 64.7978 46.6183 64.2634C45.7757 63.729 45.118 63.205 44.6453 62.6912C44.4398 62.0541 44.1932 61.2936 43.9055 60.4099C43.6383 59.5056 43.4739 58.478 43.4122 57.3271C42.6929 57.9025 42.0455 58.5705 41.4701 59.3309L41.6859 64.9108C41.2337 65.0341 40.6582 65.0958 39.9595 65.0958C39.2607 65.0958 38.675 65.0341 38.2023 64.9108C37.4624 64.212 36.8664 63.3386 36.4142 62.2904C36.517 61.7149 36.702 61.1395 36.9692 60.564C37.2363 59.9886 37.5652 59.4234 37.9557 58.8685L38.1098 57.0188L36.9692 43.177L35.8902 44.1943C35.7463 43.9477 35.5716 43.6086 35.3661 43.177C35.1606 42.7248 35.0373 42.2624 34.9962 41.7897L39.1579 39.7551C39.3635 39.7756 39.6512 39.8784 40.0211 40.0633C40.4116 40.2483 41.655 41.1115 42.025 41.3581C41.84 41.1732 42.4154 41.6048 42.025 41.3581L41.1618 55.2924C41.8194 54.6964 42.4977 54.1312 43.1964 53.5969C43.8952 53.0625 44.5837 52.5693 45.2619 52.1171C45.4058 51.7061 45.5805 51.3053 45.786 50.9148C45.9915 50.5038 46.2792 50.0722 46.6492 49.6201C47.1219 49.4967 47.6665 49.4248 48.2831 49.4043C48.9202 49.3632 49.4648 49.394 49.917 49.4967C50.2663 49.9283 50.5335 50.4627 50.7185 51.0998C50.924 51.7164 51.037 52.3227 51.0576 52.9187C49.1668 53.8024 47.5226 54.6553 46.1251 55.4774C46.269 56.3406 46.567 57.3579 47.0191 58.5294C47.4713 59.7008 48.057 60.8209 48.7763 61.8896L51.9516 60.8415Z" fill="#FA64A1"/>
<path d="M34.7212 60.934C34.9061 61.1806 35.0911 61.53 35.2761 61.9821C35.461 62.4343 35.5741 62.8967 35.6152 63.3694L31.4534 65.404C30.9601 65.2602 30.4258 65.0238 29.8503 64.695C29.2954 64.3662 28.8741 64.0682 28.5864 63.801L28.7097 61.5505C27.6821 62.6809 26.6442 63.5852 25.596 64.2634C24.5479 64.9416 23.6333 65.3218 22.8523 65.404C22.5441 65.2396 22.1639 64.9519 21.7117 64.5408C21.2801 64.1093 20.8691 63.6366 20.4786 63.1228C20.1086 62.5884 19.862 62.0849 19.7387 61.6122L20.3861 53.1036C20.6944 52.446 21.1362 51.7883 21.7117 51.1306C22.2872 50.4524 22.8626 49.9078 23.4381 49.4967C24.9178 49.2296 26.3565 49.0754 27.754 49.0343C29.1516 48.9727 30.693 49.209 32.3782 49.7434C32.6043 49.99 32.8098 50.288 32.9948 50.6374C33.1798 50.9868 33.3339 51.3259 33.4572 51.6547C33.6011 51.963 33.6833 52.1993 33.7038 52.3638C33.4983 53.268 33.2209 54.1518 32.8715 55.015C32.5426 55.8782 32.1419 56.7002 31.6692 57.4812L32.0391 61.6122L34.7212 60.934ZM23.993 61.643C24.7329 61.3758 25.5447 60.8004 26.4284 59.9166C27.3327 59.0329 28.1548 57.9847 28.8947 56.7722L29.018 52.1171C28.1753 52.0966 27.3635 52.1377 26.5825 52.2404C25.8016 52.3432 25.0617 52.4973 24.3629 52.7029C23.993 53.7305 23.7258 54.7786 23.5614 55.8473C23.4175 56.8955 23.3456 57.8717 23.3456 58.776C23.3661 59.6597 23.4381 60.3688 23.5614 60.9031C23.6847 61.4375 23.8286 61.6841 23.993 61.643Z" fill="#FA64A1"/>
<path d="M14.8245 53.7202C15.811 54.2956 16.5303 54.9327 16.9825 55.6315C17.4346 56.3097 17.6915 57.1318 17.7532 58.0978C17.8148 59.0431 17.7429 60.2043 17.5374 61.5813C17.3524 61.9513 17.0338 62.352 16.5817 62.7836C16.1501 63.2152 15.6568 63.6263 15.1019 64.0167C14.547 64.3867 14.0127 64.695 13.4989 64.9416C12.9851 65.2088 12.5638 65.3629 12.2349 65.404L5.54523 64.4792L4.00383 65.404C3.14064 65.0957 2.4727 64.6333 2 64.0167L3.2023 54.5525L3.72637 42.7146C4.0141 42.7557 4.43542 42.9201 4.99032 43.2078C5.56578 43.475 6.03848 43.7524 6.40842 44.0401C7.20995 43.6291 8.05258 43.3208 8.93632 43.1153C9.84061 42.8892 10.7141 42.7556 11.5567 42.7145C12.3993 42.6734 13.1495 42.7248 13.8072 42.8687C14.3621 43.177 14.8759 43.5674 15.3486 44.0401C15.8418 44.5128 16.2734 44.9855 16.6433 45.4582C17.0133 45.9309 17.2907 46.342 17.4757 46.6914L17.2291 51.3156L14.8245 53.7202ZM13.4989 46.2906C12.5535 46.0851 11.4437 46.044 10.1694 46.1673C8.89522 46.27 7.71347 46.6092 6.62421 47.1846L6.47007 52.3329L13.4989 51.2231C13.6222 50.2571 13.6838 49.3529 13.6838 48.5102C13.7044 47.6676 13.6427 46.9277 13.4989 46.2906ZM6.37759 61.8588L13.7455 61.1806C14.0949 59.7419 14.1668 58.5293 13.9613 57.5428C13.7763 56.5358 13.2625 55.5904 12.4199 54.7067L6.37759 55.1383V61.8588Z" fill="#78DEEF"/>
<defs>
<linearGradient id="paint0_linear_11_102" x1="71.2703" y1="9.51755" x2="80.6407" y2="20.0472" gradientUnits="userSpaceOnUse">
<stop stop-color="#78DEEF"/>
<stop offset="1" stop-color="#FA64A1" stop-opacity="0.77"/>
</linearGradient>
<linearGradient id="paint1_linear_11_102" x1="45.4767" y1="9.53908" x2="52.2175" y2="25.5385" gradientUnits="userSpaceOnUse">
<stop stop-color="#78DEEF"/>
<stop offset="1" stop-color="#FA64A1" stop-opacity="0.77"/>
</linearGradient>
<linearGradient id="paint2_linear_11_102" x1="30.5703" y1="9.53908" x2="38.7646" y2="23.6046" gradientUnits="userSpaceOnUse">
<stop stop-color="#78DEEF"/>
<stop offset="1" stop-color="#FA64A1" stop-opacity="0.77"/>
</linearGradient>
<linearGradient id="paint3_linear_11_102" x1="5.35386" y1="16.3205" x2="22.0968" y2="15.2392" gradientUnits="userSpaceOnUse">
<stop stop-color="#FDC3D7"/>
<stop offset="1" stop-color="#F2C3EF"/>
</linearGradient>
</defs>
</svg>
