<svg width="26" height="26" viewBox="0 0 26 26" fill="none" xmlns="http://www.w3.org/2000/svg">
<path d="M25 9.99927C24.9979 10.928 24.7404 11.8332 24.2628 12.5907C23.7853 13.3483 23.1111 13.921 22.3328 14.2304C21.9072 14.4119 21.4555 14.5035 21.0004 14.5004C20.175 14.4978 19.3705 14.208 18.6972 13.6708C18.0238 13.1336 17.5147 12.3752 17.2396 11.4996C17.078 11.0204 16.9967 10.5118 16.9996 9.99927C17.0035 10.5116 16.9217 11.0209 16.7596 11.4996C16.4847 12.3751 15.9758 13.1334 15.3027 13.6706C14.6296 14.2078 13.8253 14.4977 13 14.5004C12.1747 14.4977 11.3704 14.2078 10.6973 13.6706C10.0242 13.1334 9.51534 12.3751 9.24043 11.4996C9.07884 11.0205 8.99747 10.5118 9.00043 9.99927C9.00303 10.5116 8.92259 11.0209 8.76043 11.4996C8.48545 12.3753 7.97636 13.1338 7.30302 13.671C6.62967 14.2083 5.82506 14.498 4.99957 14.5004C4.54551 14.5033 4.09146 14.4128 3.66724 14.2304C2.889 13.9208 2.21491 13.348 1.7374 12.5905C1.25988 11.833 1.00231 10.9279 1 9.99927L1.59935 7.6305L3.03935 3.00973C3.22217 2.42188 3.56304 1.91259 4.0147 1.55248C4.46636 1.19237 5.00642 0.999288 5.56 1H20.44C20.9934 0.999591 21.5331 1.19282 21.9845 1.5529C22.4359 1.91299 22.7766 2.42212 22.9594 3.00973L24.3994 7.6305L25 9.99927Z" stroke="url(#paint0_linear_45_806)" stroke-width="1.5" stroke-linecap="round" stroke-linejoin="round"/>
<path d="M22.3328 14.2304V22.0007C22.3324 22.7961 22.0514 23.5587 21.5515 24.1211C21.0516 24.6835 20.3738 24.9996 19.6668 25H6.33189C5.98168 25.0002 5.63487 24.9228 5.31127 24.7721C4.98768 24.6215 4.69363 24.4006 4.44594 24.1221C4.19825 23.8435 4.00176 23.5128 3.8677 23.1488C3.73364 22.7849 3.66464 22.3947 3.66464 22.0007V14.2304M9.00043 20.5004H16.9996" stroke="url(#paint1_linear_45_806)" stroke-width="1.5" stroke-linecap="round" stroke-linejoin="round"/>
<defs>
<linearGradient id="paint0_linear_45_806" x1="12.6646" y1="1.0716" x2="15.3802" y2="13.1669" gradientUnits="userSpaceOnUse">
<stop stop-color="#FDC3D7"/>
<stop offset="1" stop-color="#FA64A1"/>
</linearGradient>
<linearGradient id="paint1_linear_45_806" x1="12.7378" y1="14.2875" x2="14.954" y2="23.9123" gradientUnits="userSpaceOnUse">
<stop stop-color="#FDC3D7"/>
<stop offset="1" stop-color="#FA64A1"/>
</linearGradient>
</defs>
</svg>
